<svg id="Layer_1" data-name="Layer 1" xmlns="http://www.w3.org/2000/svg" viewBox="0 0 300 300"><defs><style>.cls-1{fill:#bfbebe;}.cls-2{fill:#6d6d6d;}.cls-3{fill:#a39f9f;}</style></defs><title>rock</title><polygon class="cls-1" points="293 293 250.23 293 247 274 237.6 295 212.57 295 196.1 294.84 160 285 149.51 294.39 118.32 294.08 117 251 100.44 293.91 102.7 289 43.13 288.42 7 293 7 269.81 37 265 7 252.62 7 226.23 24 198 7 178.91 7 124.62 27 117 7 107.77 6.06 66.53 9 63 5.83 56.35 5 20 0 0 24.36 7 44.96 7 51 30 63.09 7 89.13 7 90 18 113.13 7 162.91 7 175 21 198 14 215 32 227.24 11.85 293 7 293 36.28 282 43 293 53.64 293 97.04 265 102 293 120.87 293 212.57 286 224 293 237.6 293 293"/><path class="cls-2" d="M2,8,0,44.13,7,63H0l3,50,21,4L0,119l3,37,1,24,12,12-4,20L0,230v27.18L30,264,0,267V300H34.06L49,291H89l15.53,9L116,260l-2.74,40H150l9-11,32,5,9.5,6h39.6l5.9-20v20h54V259.56L290,222l10-19.82V167.62L291,164l9-7.46V118l-31-14,31,6.57V54.19L285,42l15,4.81V0H229.36L216,27,215,8,187,9l-10,7L158.89,0H123.66L94,12l6.17-12H59.23S53,21,53,20s-.15-20-.15-20H0L42,17l7,29L65,11l17,1,2,14L128,7l24,7,14,14,28-8,10,5,9,17,20-30,56,2-1,17-21,1,17,31,1,32-37,3,36,38-1,16-10,15,17,14-12,46,9,47v14l-35,2-1-39-18,43-29-2-11-11-39-6-11,15-20-1-4-51L99,287,87,275l-35,1L26,290l-14,1-2-15,42-11L15,247l4-18s12-19,11-19,11-28,11-28L9,178s8-28,7-28,1-29,1-29l23,3L27,104l-17,1V74l15-5L7,39l5-19Z"/><path class="cls-3" d="M192,23a238.5,238.5,0,0,1,7,50c-11.08,17.23-14.61,29.77-35,46l41,33c1.47-13.62,2.94-27.22,7-34l41,5c1.62-5.84.82-13.52-5-25l-21-2c-5.12-1.63-9.71-3.76-11-9C212.12,65,204,43.72,192,23Z"/><path class="cls-3" d="M31,139c20.8-.85,44.71,4.67,70,13,3.59,15.55,12.77,31.24,25,47l44,15c-5.35,24.18-24.62,47.3-47.38,70.14L119,247l-3-4L99,287,87,275l-31-6a73.78,73.78,0,0,1,38-17c-15.07-2.38-33.44,1-53.5,7.41L15,247l3-20,33-12c2.35-12.35,3.46-24.28,1-35L31,166C28.1,157.9,28.23,148.86,31,139Z"/><polygon class="cls-3" points="63 45 83 81 80 95 83 136 83 96 87 79 63 45"/><polygon class="cls-3" points="127 56 114 112 127 156 117 176 131 152 117 109 127 56"/><polygon class="cls-3" points="211 200 186 242 189.64 280.48 193 280 197.44 285.44 197 246 211 200"/><polygon class="cls-3" points="274 133 242 159 247 196 242 218 254 192 251 164 274 133"/></svg>