<svg id="Layer_1" data-name="Layer 1" xmlns="http://www.w3.org/2000/svg" viewBox="0 0 1901.76 1913.51"><defs><style>.cls-1{fill:#442915;}.cls-2{fill:#70523c;}</style></defs><title>settings</title><path class="cls-1" d="M731.31,466.34,468.84,728.81c-20.63,20.63-242.58-298.63-242.58-298.63C203.09,407,201,371.5,221.66,350.86l131.7-131.7c20.64-20.63,56.15-18.57,79.32,4.6C432.68,223.76,751.94,445.71,731.31,466.34Z" transform="translate(-9.71 -4.49)"/><path class="cls-2" d="M679.79,461.89,464.47,677.21c-16.93,16.93-199-245-199-245-19-19-20.7-48.14-3.77-65.06l108-108c16.93-16.92,46.06-15.24,65.07,3.77C434.8,262.88,696.71,445,679.79,461.89Z" transform="translate(-9.71 -4.49)"/><path class="cls-1" d="M444.93,745.36v365.46c0,28.74-376.81-39-376.81-39-32.26,0-58.41-23.3-58.41-52V836.4c0-28.73,26.15-52,58.41-52C68.12,784.38,444.93,716.63,444.93,745.36Z" transform="translate(-9.71 -4.49)"/><path class="cls-2" d="M404.82,779v298.24c0,23.45-307.49-31.84-307.49-31.84-26.33,0-47.68-19-47.68-42.45V853.27c0-23.45,21.35-42.46,47.68-42.46C97.33,810.81,404.82,755.52,404.82,779Z" transform="translate(-9.71 -4.49)"/><path class="cls-1" d="M480.74,1202l258.8,258.81c20.35,20.34-294.46,239.2-294.46,239.2-22.85,22.85-57.86,24.87-78.21,4.53L237,1574.71c-20.35-20.35-18.32-55.37,4.53-78.21C241.54,1496.5,460.39,1181.69,480.74,1202Z" transform="translate(-9.71 -4.49)"/><path class="cls-2" d="M476.23,1261.08l205.34,205.34c16.14,16.14-233.64,189.79-233.64,189.79-18.12,18.13-45.91,19.74-62.05,3.59l-103-103c-16.14-16.15-14.53-43.93,3.6-62.06C286.44,1494.71,460.08,1244.93,476.23,1261.08Z" transform="translate(-9.71 -4.49)"/><path class="cls-1" d="M772.3,1471.44h375c29.48,0-40,386.62-40,386.62,0,33.1-23.89,59.94-53.38,59.94H865.72c-29.48,0-53.38-26.84-53.38-59.94C812.34,1858.06,742.82,1471.44,772.3,1471.44Z" transform="translate(-9.71 -4.49)"/><path class="cls-2" d="M809.53,1511H1114c23.94,0-32.51,314-32.51,314,0,26.88-19.4,48.67-43.34,48.67H885.38c-23.94,0-43.34-21.79-43.34-48.67C842,1824.93,785.59,1511,809.53,1511Z" transform="translate(-9.71 -4.49)"/><path class="cls-1" d="M1200,1448.53,1459.54,1189c20.41-20.41,239.9,295.32,239.9,295.32,22.92,22.91,25,58,4.55,78.44L1573.75,1693c-20.41,20.41-55.53,18.37-78.44-4.54C1495.31,1688.43,1179.58,1468.93,1200,1448.53Z" transform="translate(-9.71 -4.49)"/><path class="cls-2" d="M1248.59,1452.75l215.32-215.32c16.93-16.93,199,245,199,245,19,19,20.7,48.14,3.77,65.06l-108,108c-16.93,16.92-46.06,15.24-65.07-3.77C1493.58,1651.76,1231.67,1469.68,1248.59,1452.75Z" transform="translate(-9.71 -4.49)"/><path class="cls-1" d="M1475.83,1111V745.18c0-28.76,377.16,39.06,377.16,39.06,32.3,0,58.48,23.31,58.48,52.07v183.56c0,28.76-26.18,52.07-58.48,52.07C1853,1071.94,1475.83,1139.76,1475.83,1111Z" transform="translate(-9.71 -4.49)"/><path class="cls-2" d="M1512.33,1080.34V775.84c0-23.94,314,32.51,314,32.51,26.88,0,48.67,19.41,48.67,43.34v152.8c0,23.94-21.79,43.34-48.67,43.34C1826.29,1047.83,1512.33,1104.28,1512.33,1080.34Z" transform="translate(-9.71 -4.49)"/><path class="cls-1" d="M1459.6,729.82,1200.66,470.88c-20.36-20.36,294.62-239.34,294.62-239.34,22.86-22.86,57.9-24.89,78.25-4.53l129.94,129.93c20.35,20.36,18.32,55.4-4.54,78.26C1698.93,435.2,1480,750.18,1459.6,729.82Z" transform="translate(-9.71 -4.49)"/><path class="cls-2" d="M1463.84,677.09,1248.53,461.78c-16.93-16.93,245-199,245-199,19-19,48.14-20.7,65.07-3.77l108,108c16.93,16.93,15.24,46.06-3.77,65.07C1662.85,432.11,1480.77,694,1463.84,677.09Z" transform="translate(-9.71 -4.49)"/><path class="cls-1" d="M1147.81,452.3h-376c-29.56,0,40.14-387.7,40.14-387.7,0-33.2,24-60.11,53.53-60.11h188.69c29.56,0,53.53,26.91,53.53,60.11C1107.67,64.6,1177.37,452.3,1147.81,452.3Z" transform="translate(-9.71 -4.49)"/><path class="cls-2" d="M1112.05,409.7H807.54c-23.94,0,32.51-313.95,32.51-313.95,0-26.88,19.41-48.67,43.35-48.67h152.79c23.94,0,43.35,21.79,43.35,48.67C1079.54,95.75,1136,409.7,1112.05,409.7Z" transform="translate(-9.71 -4.49)"/><circle class="cls-1" cx="950.78" cy="954.64" r="691.79"/><circle class="cls-2" cx="950.78" cy="954.64" r="647.2"/><circle class="cls-1" cx="951.99" cy="955.85" r="445.98"/></svg>