<svg id="Layer_1" data-name="Layer 1" xmlns="http://www.w3.org/2000/svg" viewBox="0 0 450 300"><defs><style>.cls-1{fill:#56473b;}.cls-2{fill:#352a23;}</style></defs><title>wood_table</title><rect class="cls-1" width="450" height="300"/><path class="cls-2" d="M0,51H45S82,72,84,73s32,4,32,4H72L41,64H0Z" transform="translate(0 0)"/><polygon class="cls-2" points="29 150 161 137 400 183 168 152 29 150"/><polygon class="cls-2" points="302 237 350 231 404 231 450 208.56 450 228.69 407 249 353 241 302 237"/><path class="cls-2" d="M2,239c-.36-7.21,186-28.93,187-19C121.75,223.85,58.59,229.77,2,239Z" transform="translate(0 0)"/></svg>