<svg id="Layer_1" data-name="Layer 1" xmlns="http://www.w3.org/2000/svg" viewBox="0 0 300 302.07"><defs><style>.cls-1{fill:#684121;}.cls-2{fill:#442915;}.cls-3{fill:#c6ba7b;}.cls-4{fill:#998665;}</style></defs><title>wood</title><rect class="cls-1" width="300" height="300"/><path class="cls-2" d="M34,0S22,135,21,184s-2.71,116-2.71,116H29.36S22,181,30,150,45.81,0,45.81,0H58.22S57,118,48,152,38,262,41,280s14,20,14,20-9-70-1-113S72,75,71,57,92,5,110,29s34,72,13,98-49,56-52,83-4,64-1,73,9.7,17,9.7,17h9.06S72,292,81,239s23-72,43-96,38-32,29-68-26-55-7-60,29-14,39,10-5,74-14,77-51,48-56,63-19,85-7,100,25,29,42,32,29,12,40-5,47-82,38-116-30-56-19-105,21-81,35-64,22,26,15,71-14,82-18,111-9,51-9,66,1,41,1,41l8.11,4S242,230,255,178,283,37,279,22,264.93,0,264.93,0Z"/><path class="cls-1" d="M159,134s-31,17-38,60-8,67,8,80,31,20,40,16,44-50,45-66,4-54-8-73-25-22-25-22,33,34,28,64-10,48-24,61-11,30-29,21-32-21-28-50,1-49,15-59,32-20,40-6,13,31,6,43-14,25-29,33-17,14-15,14,34-16,38-25,17-32,17-38-11-37-18-44S159,134,159,134Z"/><path class="cls-3" d="M114.76,44.89C124.82,125.18,76,187.94,25.07,238.49c6.51-25.29,19.11-38.11,35.78-71.55,7.43-14.9,16.38-47.39,24.75-63.75C95.09,84.63,105,65.17,114.76,44.89Z"/><path class="cls-3" d="M194.06,16.42c5.43,101.42-55.57,183.46-118.48,263.1,9.81-38.29,16.32-81.19,47.15-122.42,11.58-15.49,20.84-33.11,28.15-52.68C162.05,74.52,178.09,45.6,194.06,16.42Z"/><path class="cls-3" d="M228,62.77c4.81,61.13-16.39,113.55-45.08,141-20.28,19.39-22.89,44.62-41,63.13C157,194.18,189,127.6,228,62.77Z"/><path class="cls-3" d="M261.82,94.34c12.22,76.35-32.14,127.6-74.71,162,4.23-12.84,10.41-31.78,24.64-52.68,9.48-13.91,20.93-28.26,30.11-62C246,126.34,255.13,111.44,261.82,94.34Z"/><path class="cls-4" d="M194.19,16.45c5.42,101.42-55.57,183.46-118.49,263.1C98.31,256.72,195.2,65.82,194.19,16.45Z"/><path class="cls-4" d="M114.79,44.89C124.85,125.18,76,187.94,25.1,238.49,46.55,232.22,121,85.57,114.79,44.89Z"/><path class="cls-4" d="M228.21,62.77c4.81,61.13-16.39,113.55-45.08,141-20.28,19.39-22.89,44.62-41,63.13,19.3-38.52,59.29-89.5,61.62-130S221.07,89.58,228.21,62.77Z"/><path class="cls-4" d="M261.94,94.34c12.22,76.35-32.14,127.6-74.71,162C204.17,255.52,272.59,125.7,261.94,94.34Z"/></svg>