<svg id="Layer_1" data-name="Layer 1" xmlns="http://www.w3.org/2000/svg" viewBox="0 0 450.13 304.55"><defs><style>.cls-1{fill:#775f35;}.cls-2{fill:#493412;}.cls-3{fill:#e8e1af;}.cls-4{fill:#bcafa6;}.cls-5{fill:#7f7159;}.cls-6,.cls-7,.cls-8{fill:#fff;stroke-miterlimit:10;}.cls-6{stroke:#4f492f;stroke-width:10px;}.cls-7{stroke:#fff;stroke-width:6px;}.cls-8{stroke:#efebda;stroke-width:15px;}.cls-9{fill:#afa594;}</style></defs><title>word</title><g id="wood"><rect class="cls-1" x="0.09" y="2.84" width="450" height="72.01" rx="10"/><polygon class="cls-2" points="0.09 18.46 8.09 23.67 24.09 27.14 11.09 26.27 8.09 28.87 0.09 24.68 0.09 18.46"/><polygon class="cls-2" points="0.09 41.02 3.09 43.62 2.09 47.09 6.09 45.36 2.09 48.83 1.09 54.03 0.09 54.59 0.09 41.02"/><path class="cls-2" d="M21,60.14,9,61,0,58.77v5.87A8.77,8.77,0,0,0,3,69.8c2.44,2.11,5.55,2.7,9,2.48L8,68.81l4-4.34Z" transform="translate(0.09 2.57)"/><path class="cls-2" d="M4,70.55l12-1.74,25,1.74,10-4.34,32,2.6,9-9.54-4,8.67,13-2.6-3,3.47,43-1.73-12,3.47,47-.87,14-2.6h85l8-17.35-2,10.41h5l-7,6.07,20-2.6,9,.86,3,4.34,19-.87,54-.86,16-3.47,12,1.73,14,.87,6,1.73,17.85-2.86c-1.08,5.09-5.45,7.73-14.06,7.2H10C8,72.32,4.79,71.46,4,70.55Z" transform="translate(0.09 2.57)"/><polygon class="cls-2" points="431.09 18.46 342.09 15.86 232.09 34.95 339.09 23.67 429.09 25.4 431.09 18.46"/><polygon class="cls-2" points="21.09 35.81 31.09 33.21 29.09 35.81 50.09 34.95 59.09 31.47 52.09 39.28 21.09 35.81"/><polygon class="cls-2" points="432.09 11.52 442.09 9.78 449.93 14.68 449.93 19.25 447.09 25.4 430.09 31.47 444.09 24.53 442.09 17.59 446.09 15.86 432.09 11.52"/><polygon class="cls-2" points="450.09 35.81 433.09 48.83 418.09 52.3 439.09 50.56 450.09 42.75 450.09 35.81"/></g><g id="wood-2" data-name="wood"><rect class="cls-1" y="78.49" width="450" height="72.01" rx="10"/><polygon class="cls-2" points="0.09 88.57 8.09 97.32 7.09 104.57 19.09 118.57 11.09 113.57 5.09 107.57 0.09 100.57 0.09 88.57"/><path class="cls-2" d="M4,146l11.91-1.54,25,1.74L56,137l5,7,21.91.46,5-.86,10,.86,31,1.74,47-.87,14-2.6,66.19-.1,8-17.36,16.81,10.52-2,6.07,32,2.6,19-.86L374,134l5,10,32.91-3,14,.87,6,1.74,17.85-2.87c-1.08,5.09-5.45,7.73-14.06,7.2H9.91C8,148,4.79,146.91,4,146Z" transform="translate(0.09 2.57)"/><polygon class="cls-2" points="54.09 119.57 0.09 133.57 0.09 137.57 80.09 126.57 197 124.05 54.09 119.57"/><polygon class="cls-2" points="348 115.46 358 112.86 356 115.46 377 114.59 386 111.13 379 118.93 348 115.46"/><polygon class="cls-2" points="432 87.17 442 85.44 449.85 90.33 449.85 94.91 447 101.05 430 107.13 444 100.18 442 93.24 446 91.51 432 87.17"/></g><g id="wood-3" data-name="wood"><rect class="cls-1" x="0.13" y="154.48" width="450" height="72.01" rx="10"/><polygon class="cls-2" points="0.13 192.65 3.13 195.25 2.13 198.72 6.13 196.99 2.13 200.46 1.13 205.66 0.13 206.22 0.13 192.65"/><path class="cls-2" d="M21,211.77l-12,.87L0,210.4v5.87a8.84,8.84,0,0,0,3,5.16c2.44,2.12,5.55,2.7,9,2.49l-4-3.47,4-4.34Z" transform="translate(0.09 2.57)"/><path class="cls-2" d="M4,222.18l12-1.73,25,1.73,42-1.73,5-.87L101,217l-3,3.48,43-1.74,35,2.6,14-2.6h85l33-2.6,3,4.34,19-.87,54-.87,16-3.47L412,217l14,.87,6,1.74,17.85-2.87c-1.08,5.09-5.45,7.73-14.06,7.21H10C8.08,224,4.84,223.09,4,222.18Z" transform="translate(0.09 2.57)"/><polygon class="cls-2" points="188.13 186.44 198.13 183.84 202.09 183.57 213.09 182.57 229.09 189.57 215.09 185.57 181.09 192.57 188.13 186.44"/><polygon class="cls-2" points="450.13 187.44 441.1 194.36 425.09 197.57 418.13 203.93 432.09 198.57 450.13 194.39 450.13 187.44"/></g><g id="wood-4" data-name="wood"><rect class="cls-1" x="0.04" y="230.13" width="450" height="72.01" rx="10"/><polygon class="cls-2" points="0.04 245.74 8.04 250.95 24.04 254.42 11.04 253.55 8.04 256.15 0.04 251.97 0.04 245.74"/><polygon class="cls-2" points="0.04 268.3 3.04 270.9 2.04 274.38 6.04 272.64 2.04 276.11 1.04 281.31 0.04 281.87 0.04 268.3"/><path class="cls-2" d="M21,287.42l-12,.87-9-2.24v5.87a8.74,8.74,0,0,0,3,5.16c2.44,2.12,5.54,2.7,9,2.49L8,296.1l4-4.34Z" transform="translate(0.09 2.57)"/><path class="cls-2" d="M4,297.83l12-1.73,25,1.73,47-2.6L104,290l25,7.83,47-.87,14-2.6,27.53-.1L227,280l7,10-7,3,62,1-12-7,34,9.1,19-.87,54-.87,16-3.47,12,1.74,14,.86,6,1.74,17.84-2.87c-1.08,5.1-5.45,7.73-14.06,7.21H10C8,299.6,4.75,298.74,4,297.83Z" transform="translate(0.09 2.57)"/><polygon class="cls-2" points="450.04 267.74 347.09 275.57 277.09 253.57 356.09 285.57 450.09 275.57 450.04 267.74"/><polygon class="cls-2" points="432.04 238.8 442.04 237.07 449.89 241.96 449.89 246.54 447.04 252.69 430.04 258.76 444.04 251.82 442.04 244.88 446.04 243.14 432.04 238.8"/></g><g id="roop"><path class="cls-3" d="M65.37,1.32C53.4,26.78,51,50.56,64.08,70.47a1.91,1.91,0,0,1-.91,2.41c-3.2.61-6,1.27-9.85-.21a6.66,6.66,0,0,1-1.6-1.91C42.67,49.38,43.19,26,52,1A4.9,4.9,0,0,1,53.88-.53a17.06,17.06,0,0,1,11,.12C65.27-.29,65.58.88,65.37,1.32Z" transform="translate(0.09 2.57)"/><path class="cls-4" d="M56-1c-10.5,37.21-8,57.73-.7,74.27C54,73,51.78,72.36,51,71,45,60.84,39,39,52,1,52.8-.28,54.26-.8,56-1Z" transform="translate(0.09 2.57)"/><path class="cls-5" d="M50,7c2,1.52,8.13-.87,14-3,.27,0-.24,1.33-2,5-5.81,3.26-11.29,6.07-14,5A17.83,17.83,0,0,1,50,7Z" transform="translate(0.09 2.57)"/><path class="cls-5" d="M44.44,35.19c2,1.52,5.69-3.06,11.56-5.19a14.24,14.24,0,0,1-1,7c-5.81,3.26-8.29,7.07-11,6C44.12,40.7,43.26,37.56,44.44,35.19Z" transform="translate(0.09 2.57)"/><path class="cls-5" d="M46,58c3.44.81,8.78-3.92,10.5-5.53.24-.23,3,6.63,2.5,8.53-5.81,3.26-8.29,5.07-11,4C47.31,62.59,46,59.59,46,58Z" transform="translate(0.09 2.57)"/></g><g id="roop-2" data-name="roop"><path class="cls-3" d="M50,.14C38,25.6,35.63,49.37,48.72,69.28a1.93,1.93,0,0,1-.91,2.42c-3.2.61-6,1.26-9.85-.22a6.53,6.53,0,0,1-1.6-1.91c-9-21.37-8.53-44.81.28-69.76a5,5,0,0,1,1.88-1.53,17.12,17.12,0,0,1,11,.12C49.91-1.47,50.22-.3,50,.14Z" transform="translate(0.09 2.57)"/><path class="cls-4" d="M40.64-2.19c-10.5,37.21-8,57.73-.7,74.27-1.33-.31-3.52-.91-4.3-2.27-6-10.16-12-32,1-70C37.44-1.46,38.9-2,40.64-2.19Z" transform="translate(0.09 2.57)"/><path class="cls-5" d="M34.64,5.81c2,1.52,8.13-.87,14-3,.27-.05-.24,1.33-2,5-5.81,3.26-11.29,6.07-14,5A17.71,17.71,0,0,1,34.64,5.81Z" transform="translate(0.09 2.57)"/><path class="cls-5" d="M29.08,34c2,1.51,5.69-3.07,11.56-5.2a14.24,14.24,0,0,1-1,7c-5.81,3.26-8.29,7.07-11,6C28.75,39.52,27.9,36.37,29.08,34Z" transform="translate(0.09 2.57)"/><path class="cls-5" d="M30.64,56.81c3.44.81,8.78-3.92,10.5-5.53.24-.22,3,6.63,2.5,8.53-5.81,3.26-8.29,5.07-11,4C32,61.41,30.61,58.4,30.64,56.81Z" transform="translate(0.09 2.57)"/></g><g id="roop-3" data-name="roop"><path class="cls-3" d="M55.69,77.73c-12,25.46-14.38,49.24-1.29,69.14a1.93,1.93,0,0,1-.91,2.42c-3.2.61-6,1.27-9.85-.21a6.66,6.66,0,0,1-1.6-1.91c-9-21.38-8.53-44.81.28-69.76a4.81,4.81,0,0,1,1.88-1.53,17.13,17.13,0,0,1,11,.11C55.59,76.12,55.9,77.29,55.69,77.73Z" transform="translate(0.09 2.57)"/><path class="cls-4" d="M46.32,75.41c-10.5,37.2-8,57.72-.7,74.26-1.33-.31-3.52-.91-4.3-2.26-6-10.17-12-32,1-70C43.12,76.13,44.58,75.6,46.32,75.41Z" transform="translate(0.09 2.57)"/><path class="cls-5" d="M40.32,83.41c2,1.51,8.13-.88,14-3,.27,0-.24,1.32-2,5-5.81,3.26-11.29,6.07-14,5A17.78,17.78,0,0,1,40.32,83.41Z" transform="translate(0.09 2.57)"/><path class="cls-5" d="M34.76,111.6c2,1.52,5.69-3.07,11.56-5.19a14.25,14.25,0,0,1-1,7c-5.81,3.26-8.29,7.07-11,6C34.44,117.11,33.58,114,34.76,111.6Z" transform="translate(0.09 2.57)"/><path class="cls-5" d="M36.32,134.41c3.44.81,8.78-3.93,10.5-5.53.24-.23,3,6.63,2.5,8.53-5.81,3.26-8.29,5.07-11,4C37.63,139,36.29,136,36.32,134.41Z" transform="translate(0.09 2.57)"/></g><g id="roop-4" data-name="roop"><path class="cls-3" d="M40.33,76.54C28.36,102,26,125.78,39,145.69a1.91,1.91,0,0,1-.91,2.41c-3.2.61-6,1.27-9.85-.21a6.5,6.5,0,0,1-1.6-1.91c-9-21.38-8.53-44.81.28-69.76a4.9,4.9,0,0,1,1.88-1.53,17.06,17.06,0,0,1,11,.12C40.23,74.93,40.54,76.1,40.33,76.54Z" transform="translate(0.09 2.57)"/><path class="cls-4" d="M31,74.22c-10.5,37.21-8,57.73-.7,74.27-1.33-.32-3.52-.91-4.3-2.27-6-10.16-12-32,1-70C27.76,74.94,29.22,74.42,31,74.22Z" transform="translate(0.09 2.57)"/><path class="cls-5" d="M25,82.22c2,1.52,8.13-.87,14-3,.27,0-.24,1.33-2,5-5.81,3.26-11.29,6.07-14,5A17.66,17.66,0,0,1,25,82.22Z" transform="translate(0.09 2.57)"/><path class="cls-5" d="M19.4,110.41c2,1.52,5.69-3.06,11.56-5.19a14.24,14.24,0,0,1-1,7c-5.81,3.26-8.29,7.07-11,6C19.07,115.92,18.22,112.78,19.4,110.41Z" transform="translate(0.09 2.57)"/><path class="cls-5" d="M21,133.22c3.44.81,8.78-3.92,10.5-5.53.24-.23,3,6.63,2.5,8.53-5.81,3.26-8.29,5.07-11,4C22.27,137.82,20.93,134.81,21,133.22Z" transform="translate(0.09 2.57)"/></g><g id="roop-5" data-name="roop"><path class="cls-3" d="M61.69,154.73c-12,25.46-14.38,49.24-1.29,69.14a1.93,1.93,0,0,1-.91,2.42c-3.2.61-6,1.27-9.85-.21a6.66,6.66,0,0,1-1.6-1.91c-9-21.38-8.53-44.81.28-69.76a4.81,4.81,0,0,1,1.88-1.53,17.13,17.13,0,0,1,11,.11C61.59,153.12,61.9,154.29,61.69,154.73Z" transform="translate(0.09 2.57)"/><path class="cls-4" d="M52.32,152.41c-10.5,37.2-8,57.72-.7,74.26-1.33-.31-3.52-.91-4.3-2.26-6-10.17-12-32,1-70C49.12,153.13,50.58,152.6,52.32,152.41Z" transform="translate(0.09 2.57)"/><path class="cls-5" d="M46.32,160.41c2,1.51,8.13-.88,14-3,.27,0-.24,1.32-2,5-5.81,3.26-11.29,6.07-14,5A17.78,17.78,0,0,1,46.32,160.41Z" transform="translate(0.09 2.57)"/><path class="cls-5" d="M40.76,188.6c2,1.52,5.69-3.07,11.56-5.19a14.25,14.25,0,0,1-1,7c-5.81,3.26-8.29,7.07-11,6C40.44,194.11,39.58,191,40.76,188.6Z" transform="translate(0.09 2.57)"/><path class="cls-5" d="M42.32,211.41c3.44.81,8.78-3.93,10.5-5.53.24-.23,3,6.63,2.5,8.53-5.81,3.26-8.29,5.07-11,4C43.63,216,42.29,213,42.32,211.41Z" transform="translate(0.09 2.57)"/></g><g id="roop-6" data-name="roop"><path class="cls-3" d="M46.33,153.54C34.36,179,32,202.78,45,222.69a1.91,1.91,0,0,1-.91,2.41c-3.2.61-6,1.27-9.85-.21a6.5,6.5,0,0,1-1.6-1.91c-9-21.38-8.53-44.81.28-69.76a4.9,4.9,0,0,1,1.88-1.53,17.06,17.06,0,0,1,11,.12C46.23,151.93,46.54,153.1,46.33,153.54Z" transform="translate(0.09 2.57)"/><path class="cls-4" d="M37,151.22c-10.5,37.21-8,57.73-.7,74.27-1.33-.32-3.52-.91-4.3-2.27-6-10.16-12-32,1-70C33.76,151.94,35.22,151.42,37,151.22Z" transform="translate(0.09 2.57)"/><path class="cls-5" d="M31,159.22c2,1.52,8.13-.87,14-3,.27-.05-.24,1.33-2,5-5.81,3.26-11.29,6.07-14,5A17.66,17.66,0,0,1,31,159.22Z" transform="translate(0.09 2.57)"/><path class="cls-5" d="M25.4,187.41c2,1.52,5.69-3.06,11.56-5.19a14.24,14.24,0,0,1-1,7c-5.81,3.26-8.29,7.07-11,6C25.07,192.92,24.22,189.78,25.4,187.41Z" transform="translate(0.09 2.57)"/><path class="cls-5" d="M27,210.22c3.44.81,8.78-3.92,10.5-5.53.24-.23,3,6.63,2.5,8.53-5.81,3.26-8.29,5.07-11,4C28.27,214.82,26.93,211.81,27,210.22Z" transform="translate(0.09 2.57)"/></g><g id="roop-7" data-name="roop"><path class="cls-3" d="M53.69,229.73c-12,25.46-14.38,49.24-1.29,69.14a1.93,1.93,0,0,1-.91,2.42c-3.2.61-6,1.27-9.85-.21a6.66,6.66,0,0,1-1.6-1.91c-9-21.38-8.53-44.81.28-69.76a4.81,4.81,0,0,1,1.88-1.53,17.13,17.13,0,0,1,11,.11C53.59,228.12,53.9,229.29,53.69,229.73Z" transform="translate(0.09 2.57)"/><path class="cls-4" d="M44.32,227.41c-10.5,37.2-8,57.72-.7,74.26-1.33-.31-3.52-.91-4.3-2.26-6-10.17-12-32,1-70C41.12,228.13,42.58,227.6,44.32,227.41Z" transform="translate(0.09 2.57)"/><path class="cls-5" d="M38.32,235.41c2,1.51,8.13-.88,14-3,.27,0-.24,1.32-2,5-5.81,3.26-11.29,6.07-14,5A17.78,17.78,0,0,1,38.32,235.41Z" transform="translate(0.09 2.57)"/><path class="cls-5" d="M32.76,263.6c2,1.52,5.69-3.07,11.56-5.19a14.25,14.25,0,0,1-1,7c-5.81,3.26-8.29,7.07-11,6C32.44,269.11,31.58,266,32.76,263.6Z" transform="translate(0.09 2.57)"/><path class="cls-5" d="M34.32,286.41c3.44.81,8.78-3.93,10.5-5.53.24-.23,3,6.63,2.5,8.53-5.81,3.26-8.29,5.07-11,4C35.63,291,34.29,288,34.32,286.41Z" transform="translate(0.09 2.57)"/></g><g id="roop-8" data-name="roop"><path class="cls-3" d="M38.33,228.54C26.36,254,24,277.78,37,297.69a1.91,1.91,0,0,1-.91,2.41c-3.2.61-6,1.27-9.85-.21a6.5,6.5,0,0,1-1.6-1.91c-9-21.38-8.53-44.81.28-69.76a4.9,4.9,0,0,1,1.88-1.53,17.06,17.06,0,0,1,11,.12C38.23,226.93,38.54,228.1,38.33,228.54Z" transform="translate(0.09 2.57)"/><path class="cls-4" d="M29,226.22c-10.5,37.21-8,57.73-.7,74.27-1.33-.32-3.52-.91-4.3-2.27-6-10.16-12-32,1-70C25.76,226.94,27.22,226.42,29,226.22Z" transform="translate(0.09 2.57)"/><path class="cls-5" d="M23,234.22c2,1.52,8.13-.87,14-3,.27-.05-.24,1.33-2,5-5.81,3.26-11.29,6.07-14,5A17.66,17.66,0,0,1,23,234.22Z" transform="translate(0.09 2.57)"/><path class="cls-5" d="M17.4,262.41c2,1.52,5.69-3.06,11.56-5.19a14.24,14.24,0,0,1-1,7c-5.81,3.26-8.29,7.07-11,6C17.07,267.92,16.22,264.78,17.4,262.41Z" transform="translate(0.09 2.57)"/><path class="cls-5" d="M19,285.22c3.44.81,8.78-3.92,10.5-5.53.24-.23,3,6.63,2.5,8.53-5.81,3.26-8.29,5.07-11,4C20.27,289.82,18.93,286.81,19,285.22Z" transform="translate(0.09 2.57)"/></g><g id="roop-9" data-name="roop"><path class="cls-3" d="M387.84,2.73c12,25.46,14.37,49.24,1.28,69.14a1.94,1.94,0,0,0,.92,2.42c3.2.61,5.94,1.27,9.85-.21a6.49,6.49,0,0,0,1.59-1.91c9-21.38,8.54-44.81-.27-69.76A4.88,4.88,0,0,0,399.33.88a17.15,17.15,0,0,0-11,.11C387.93,1.12,387.63,2.29,387.84,2.73Z" transform="translate(0.09 2.57)"/><path class="cls-4" d="M397.21.41c10.5,37.2,8,57.72.7,74.26,1.33-.31,3.51-.91,4.3-2.26,6-10.17,12-32-1-70C400.4,1.13,399,.6,397.21.41Z" transform="translate(0.09 2.57)"/><path class="cls-5" d="M403.21,8.41c-2,1.51-8.14-.88-14-3-.27,0,.24,1.32,2,5,5.8,3.26,11.29,6.07,14,5A18,18,0,0,0,403.21,8.41Z" transform="translate(0.09 2.57)"/><path class="cls-5" d="M408.76,36.6c-2,1.52-5.69-3.07-11.55-5.19a14.25,14.25,0,0,0,1,7c5.8,3.26,8.29,7.07,11,6C409.09,42.11,409.94,39,408.76,36.6Z" transform="translate(0.09 2.57)"/><path class="cls-5" d="M407.21,59.41c-3.45.81-8.78-3.93-10.5-5.53-.25-.23-3,6.63-2.5,8.53,5.8,3.26,8.29,5.07,11,4C405.89,64,407.23,61,407.21,59.41Z" transform="translate(0.09 2.57)"/></g><g id="roop-10" data-name="roop"><path class="cls-3" d="M403.2,1.54c12,25.46,14.37,49.24,1.29,69.15a1.91,1.91,0,0,0,.91,2.41c3.2.61,5.94,1.27,9.85-.21A6.49,6.49,0,0,0,416.84,71c9.05-21.38,8.54-44.81-.27-69.76a5,5,0,0,0-1.88-1.53,17.08,17.08,0,0,0-11,.12C403.29-.07,403,1.1,403.2,1.54Z" transform="translate(0.09 2.57)"/><path class="cls-4" d="M412.57-.78c10.5,37.21,8,57.73.7,74.27,1.33-.32,3.51-.91,4.3-2.27,6-10.16,12-32-1-70C415.76-.06,414.31-.58,412.57-.78Z" transform="translate(0.09 2.57)"/><path class="cls-5" d="M418.57,7.22c-2,1.52-8.14-.87-14-3-.27,0,.24,1.33,2,5,5.8,3.26,11.29,6.07,14,5A18,18,0,0,0,418.57,7.22Z" transform="translate(0.09 2.57)"/><path class="cls-5" d="M424.13,35.41c-2,1.52-5.7-3.06-11.56-5.19a14.24,14.24,0,0,0,1,7c5.8,3.26,8.29,7.07,11,6C424.45,40.92,425.3,37.78,424.13,35.41Z" transform="translate(0.09 2.57)"/><path class="cls-5" d="M422.57,58.22c-3.45.81-8.78-3.92-10.5-5.53-.25-.23-3,6.63-2.5,8.53,5.8,3.26,8.29,5.07,11,4C421.25,62.82,422.59,59.81,422.57,58.22Z" transform="translate(0.09 2.57)"/></g><g id="roop-11" data-name="roop"><path class="cls-3" d="M396.92,76.73c12,25.46,14.38,49.24,1.29,69.14a2,2,0,0,0,.91,2.42c3.21.61,5.95,1.27,9.85-.21a6.36,6.36,0,0,0,1.6-1.91c9.05-21.38,8.53-44.81-.28-69.76a4.74,4.74,0,0,0-1.88-1.53,17.13,17.13,0,0,0-11,.11C397,75.12,396.72,76.29,396.92,76.73Z" transform="translate(0.09 2.57)"/><path class="cls-4" d="M406.29,74.41c10.51,37.2,8,57.72.71,74.26,1.33-.31,3.51-.91,4.29-2.26,6-10.17,12-32-1-70C409.49,75.13,408,74.6,406.29,74.41Z" transform="translate(0.09 2.57)"/><path class="cls-5" d="M412.29,82.41c-2,1.51-8.13-.88-14-3-.26,0,.25,1.32,2,5,5.81,3.26,11.3,6.07,14,5A17.62,17.62,0,0,0,412.29,82.41Z" transform="translate(0.09 2.57)"/><path class="cls-5" d="M417.85,110.6c-2,1.52-5.69-3.07-11.56-5.19a14.39,14.39,0,0,0,1,7c5.81,3.26,8.3,7.07,11,6C418.18,116.11,419,113,417.85,110.6Z" transform="translate(0.09 2.57)"/><path class="cls-5" d="M416.29,133.41c-3.44.81-8.77-3.93-10.49-5.53-.25-.23-3,6.63-2.51,8.53,5.81,3.26,8.3,5.07,11,4C415,138,416.32,135,416.29,133.41Z" transform="translate(0.09 2.57)"/></g><g id="roop-12" data-name="roop"><path class="cls-3" d="M412.28,75.54c12,25.46,14.38,49.24,1.29,69.15a1.93,1.93,0,0,0,.91,2.41c3.21.61,5.95,1.27,9.85-.21a6.36,6.36,0,0,0,1.6-1.91c9.05-21.38,8.54-44.81-.27-69.76a4.93,4.93,0,0,0-1.89-1.53,17.06,17.06,0,0,0-11,.12C412.38,73.93,412.08,75.1,412.28,75.54Z" transform="translate(0.09 2.57)"/><path class="cls-4" d="M421.66,73.22c10.5,37.21,8,57.73.7,74.27,1.33-.32,3.51-.91,4.3-2.27,6-10.16,12-32-1-70C424.85,73.94,423.4,73.42,421.66,73.22Z" transform="translate(0.09 2.57)"/><path class="cls-5" d="M427.66,81.22c-2,1.52-8.14-.87-14-3-.27,0,.24,1.33,2,5,5.8,3.26,11.29,6.07,14,5A18,18,0,0,0,427.66,81.22Z" transform="translate(0.09 2.57)"/><path class="cls-5" d="M433.21,109.41c-2,1.52-5.69-3.06-11.55-5.19a14.11,14.11,0,0,0,1,7c5.8,3.26,8.29,7.07,11,6C433.54,114.92,434.39,111.78,433.21,109.41Z" transform="translate(0.09 2.57)"/><path class="cls-5" d="M431.66,132.22c-3.45.81-8.78-3.92-10.5-5.53-.25-.23-3,6.63-2.5,8.53,5.8,3.26,8.29,5.07,11,4C430.34,136.82,431.68,133.81,431.66,132.22Z" transform="translate(0.09 2.57)"/></g><g id="roop-13" data-name="roop"><path class="cls-3" d="M391.22,153.73c12,25.46,14.38,49.24,1.29,69.14a1.94,1.94,0,0,0,.91,2.42c3.2.61,5.95,1.27,9.85-.21a6.5,6.5,0,0,0,1.6-1.91c9.05-21.38,8.53-44.81-.28-69.76a4.81,4.81,0,0,0-1.88-1.53,17.13,17.13,0,0,0-11,.11C391.32,152.12,391,153.29,391.22,153.73Z" transform="translate(0.09 2.57)"/><path class="cls-4" d="M400.59,151.41c10.5,37.2,8,57.72.7,74.26,1.33-.31,3.52-.91,4.3-2.26,6-10.17,12-32-1-70C403.79,152.13,402.34,151.6,400.59,151.41Z" transform="translate(0.09 2.57)"/><path class="cls-5" d="M406.59,159.41c-2,1.51-8.13-.88-14-3-.26,0,.24,1.32,2,5,5.81,3.26,11.29,6.07,14,5A17.62,17.62,0,0,0,406.59,159.41Z" transform="translate(0.09 2.57)"/><path class="cls-5" d="M412.15,187.6c-2,1.52-5.69-3.07-11.56-5.19a14.25,14.25,0,0,0,1,7c5.81,3.26,8.29,7.07,11,6C412.48,193.11,413.33,190,412.15,187.6Z" transform="translate(0.09 2.57)"/><path class="cls-5" d="M410.59,210.41c-3.44.81-8.77-3.93-10.5-5.53-.24-.23-3,6.63-2.5,8.53,5.81,3.26,8.29,5.07,11,4C409.28,215,410.62,212,410.59,210.41Z" transform="translate(0.09 2.57)"/></g><g id="roop-14" data-name="roop"><path class="cls-3" d="M406.58,152.54c12,25.46,14.38,49.24,1.29,69.15a1.92,1.92,0,0,0,.91,2.41c3.2.61,6,1.27,9.85-.21a6.5,6.5,0,0,0,1.6-1.91c9-21.38,8.53-44.81-.28-69.76a4.82,4.82,0,0,0-1.88-1.53,17.06,17.06,0,0,0-11,.12C406.68,150.93,406.38,152.1,406.58,152.54Z" transform="translate(0.09 2.57)"/><path class="cls-4" d="M416,150.22c10.51,37.21,8,57.73.7,74.27,1.33-.32,3.52-.91,4.3-2.27,6-10.16,12-32-1-70C419.15,150.94,417.7,150.42,416,150.22Z" transform="translate(0.09 2.57)"/><path class="cls-5" d="M422,158.22c-2,1.52-8.13-.87-14-3-.26-.05.25,1.33,2,5,5.81,3.26,11.3,6.07,14,5A17.66,17.66,0,0,0,422,158.22Z" transform="translate(0.09 2.57)"/><path class="cls-5" d="M427.51,186.41c-2,1.52-5.69-3.06-11.56-5.19a14.38,14.38,0,0,0,1,7c5.81,3.26,8.3,7.07,11,6C427.84,191.92,428.69,188.78,427.51,186.41Z" transform="translate(0.09 2.57)"/><path class="cls-5" d="M426,209.22c-3.44.81-8.77-3.92-10.5-5.53-.24-.23-3,6.63-2.5,8.53,5.81,3.26,8.3,5.07,11,4C424.64,213.82,426,210.81,426,209.22Z" transform="translate(0.09 2.57)"/></g><g id="roop-15" data-name="roop"><path class="cls-3" d="M399.13,228.73c12,25.46,14.38,49.24,1.29,69.14a1.94,1.94,0,0,0,.91,2.42c3.21.61,5.95,1.27,9.85-.21a6.36,6.36,0,0,0,1.6-1.91c9.05-21.38,8.53-44.81-.28-69.76a4.74,4.74,0,0,0-1.88-1.53,17.13,17.13,0,0,0-11,.11C399.23,227.12,398.93,228.29,399.13,228.73Z" transform="translate(0.09 2.57)"/><path class="cls-4" d="M408.5,226.41c10.51,37.2,8,57.72.7,74.26,1.34-.31,3.52-.91,4.3-2.26,6-10.17,12-32-1-70C411.7,227.13,410.25,226.6,408.5,226.41Z" transform="translate(0.09 2.57)"/><path class="cls-5" d="M414.5,234.41c-2,1.51-8.13-.88-14-3-.26,0,.25,1.32,2,5,5.81,3.26,11.3,6.07,14,5A17.62,17.62,0,0,0,414.5,234.41Z" transform="translate(0.09 2.57)"/><path class="cls-5" d="M420.06,262.6c-2,1.52-5.69-3.07-11.56-5.19a14.39,14.39,0,0,0,1,7c5.81,3.26,8.3,7.07,11,6C420.39,268.11,421.24,265,420.06,262.6Z" transform="translate(0.09 2.57)"/><path class="cls-5" d="M418.5,285.41c-3.44.81-8.77-3.93-10.5-5.53-.24-.23-3,6.63-2.5,8.53,5.81,3.26,8.3,5.07,11,4C417.19,290,418.53,287,418.5,285.41Z" transform="translate(0.09 2.57)"/></g><g id="roop-16" data-name="roop"><path class="cls-3" d="M414.49,227.54c12,25.46,14.38,49.24,1.29,69.15a1.93,1.93,0,0,0,.91,2.41c3.21.61,5.95,1.27,9.85-.21a6.36,6.36,0,0,0,1.6-1.91c9.05-21.38,8.53-44.81-.28-69.76a4.82,4.82,0,0,0-1.88-1.53,17.06,17.06,0,0,0-11,.12C414.59,225.93,414.29,227.1,414.49,227.54Z" transform="translate(0.09 2.57)"/><path class="cls-4" d="M423.86,225.22c10.51,37.21,8,57.73.71,74.27,1.33-.32,3.51-.91,4.29-2.27,6-10.16,12-32-1-70C427.06,225.94,425.61,225.42,423.86,225.22Z" transform="translate(0.09 2.57)"/><path class="cls-5" d="M429.86,233.22c-2,1.52-8.13-.87-14-3-.26-.05.25,1.33,2,5,5.81,3.26,11.3,6.07,14,5A17.66,17.66,0,0,0,429.86,233.22Z" transform="translate(0.09 2.57)"/><path class="cls-5" d="M435.42,261.41c-2,1.52-5.69-3.06-11.56-5.19a14.38,14.38,0,0,0,1,7c5.81,3.26,8.3,7.07,11,6C435.75,266.92,436.6,263.78,435.42,261.41Z" transform="translate(0.09 2.57)"/><path class="cls-5" d="M433.86,284.22c-3.44.81-8.77-3.92-10.49-5.53-.25-.23-3,6.63-2.51,8.53,5.81,3.26,8.3,5.07,11,4C432.55,288.82,433.89,285.81,433.86,284.22Z" transform="translate(0.09 2.57)"/></g><path class="cls-6" d="M162.88,217.38l.28-5.72-.31-.06c-3.34,3-9.14,5.21-16.11,4-9.89-1.75-13.82-9-12.69-15.4,1.89-10.74,13.43-14.76,32.3-11.34l.16-.92c.65-3.67.7-10.48-9.3-12.24a26.62,26.62,0,0,0-13.3,1.06l-1.08-5.68a33.27,33.27,0,0,1,16.75-1.12c14.94,2.64,16.95,12.55,15.38,21.46L172,208A57.23,57.23,0,0,0,171,218.8Zm2.68-22.91c-9.66-1.89-20.94-2.27-22.46,6.36-.93,5.23,2.47,8.39,7,9.19,6.36,1.12,11-1.84,13.13-5.35a8,8,0,0,0,.95-2.49Z" transform="translate(0.09 2.57)"/><path class="cls-6" d="M183.92,212.57a25.28,25.28,0,0,0,11.15,5.28c6.46,1.14,10-1.26,10.66-4.93.68-3.86-1.48-6.42-7.65-9.78-8.28-4.39-11.65-9.53-10.71-14.85,1.26-7.16,8.66-11.92,19.16-10.07a26.86,26.86,0,0,1,11.54,4.88l-3.26,5.48a20.75,20.75,0,0,0-9.55-4.33c-5.25-.93-8.66,1.31-9.24,4.61-.65,3.68,2,5.85,8,9.17,8,4.43,11.63,9.05,10.46,15.66-1.38,7.81-9,12.14-20.62,10.09a30.52,30.52,0,0,1-13.2-5.45Z" transform="translate(0.09 2.57)"/><path class="cls-6" d="M243.64,172.65l-2.25,12.76,12.73,2.25L253,193.81l-12.72-2.25-4.23,24c-1,5.51.2,8.94,5.15,9.81a21.85,21.85,0,0,0,5.25.35l-.67,6.13a24.2,24.2,0,0,1-8.07-.28c-4.14-.73-7.26-2.51-9-5.09-2.11-2.83-2.32-6.94-1.4-12.17L231.63,190l-7.58-1.33,1.09-6.16,7.57,1.34,1.88-10.65Z" transform="translate(0.09 2.57)"/><path class="cls-6" d="M255.47,233.71l7.84-44.43,8.88,1.56-7.83,44.43Zm19.93-55.17c-.38,2.77-3,4.58-6.53,4a5.12,5.12,0,0,1-4.47-5.9c.5-2.85,3.21-4.64,6.44-4.07S275.91,175.69,275.4,178.54Z" transform="translate(0.09 2.57)"/><path class="cls-6" d="M313.42,242.22a36.22,36.22,0,0,1-14.49.1c-14.74-2.6-22.73-13.38-20.34-27s14.46-21.78,30.42-19a32.58,32.58,0,0,1,11.91,4.47l-3.12,5.88a22.72,22.72,0,0,0-9.92-3.93c-11.21-2-18.6,4.49-20.23,13.76-1.82,10.28,4.34,17.9,14,19.61A27.83,27.83,0,0,0,313,235.9Z" transform="translate(0.09 2.57)"/><path class="cls-7" d="M159.06,216.44l.28-5.72-.3-.06c-3.34,3-9.14,5.21-16.11,4-9.9-1.75-13.83-9-12.7-15.4,1.9-10.74,13.44-14.76,32.3-11.34l.17-.92c.64-3.67.7-10.48-9.3-12.24a26.66,26.66,0,0,0-13.31,1.06L139,170.12A33.28,33.28,0,0,1,155.76,169c15,2.64,17,12.55,15.38,21.46l-2.93,16.61a58.07,58.07,0,0,0-1.07,10.79Zm2.69-22.91c-9.66-1.89-20.95-2.27-22.47,6.36-.92,5.23,2.48,8.39,7,9.19,6.37,1.12,11-1.84,13.13-5.35a8.06,8.06,0,0,0,1-2.48Z" transform="translate(0.09 2.57)"/><path class="cls-7" d="M180.11,211.63a25.24,25.24,0,0,0,11.14,5.28c6.47,1.14,10-1.26,10.66-4.94.68-3.85-1.47-6.41-7.64-9.77-8.29-4.39-11.65-9.53-10.71-14.85,1.26-7.16,8.66-11.92,19.16-10.07a26.81,26.81,0,0,1,11.53,4.88L211,187.64a20.7,20.7,0,0,0-9.54-4.33c-5.25-.93-8.67,1.31-9.25,4.61-.65,3.68,2,5.84,8,9.17,8,4.43,11.63,9,10.47,15.66-1.38,7.81-9,12.14-20.63,10.09a30.57,30.57,0,0,1-13.2-5.45Z" transform="translate(0.09 2.57)"/><path class="cls-7" d="M239.83,171.71l-2.25,12.76,12.72,2.25-1.08,6.15-12.72-2.25-4.23,24c-1,5.51.2,8.93,5.14,9.81a21.87,21.87,0,0,0,5.25.35l-.66,6.13a24.2,24.2,0,0,1-8.07-.28c-4.14-.73-7.27-2.51-9-5.09-2.1-2.83-2.32-6.94-1.39-12.17l4.27-24.24-7.57-1.33,1.08-6.15,7.57,1.33,1.88-10.65Z" transform="translate(0.09 2.57)"/><path class="cls-7" d="M251.66,232.77l7.83-44.43,8.89,1.56-7.84,44.43Zm19.93-55.17c-.39,2.77-3,4.58-6.53,4a5.14,5.14,0,0,1-4.48-5.91c.5-2.84,3.21-4.63,6.45-4.07S272.09,174.75,271.59,177.6Z" transform="translate(0.09 2.57)"/><path class="cls-7" d="M309.61,241.28a36.22,36.22,0,0,1-14.49.1c-14.75-2.6-22.74-13.38-20.34-27s14.46-21.78,30.41-19a32.65,32.65,0,0,1,11.92,4.47L314,205.8a22.77,22.77,0,0,0-9.93-3.93c-11.21-2-18.6,4.49-20.23,13.76-1.81,10.28,4.34,17.9,14,19.61a27.84,27.84,0,0,0,11.29-.28Z" transform="translate(0.09 2.57)"/><path class="cls-8" d="M87.87,161.29,67,86.57H78.23L88,124.37c2.44,9.31,4.63,18.63,6.1,25.83h.24c1.34-7.43,3.9-16.3,6.71-25.94l11-37.69h11.1l10,37.91c2.32,8.87,4.51,17.74,5.73,25.61h.25c1.7-8.2,4-16.52,6.58-25.83l10.86-37.69h10.85l-23.29,74.72H133l-10.37-38.91A207.78,207.78,0,0,1,117.26,98H117a214.88,214.88,0,0,1-6.34,24.39L99,161.29Z" transform="translate(0.09 2.57)"/><path class="cls-8" d="M246.88,123.15c0,25.72-17.19,39.36-38.17,39.36-21.7,0-37-15.3-37-37.92,0-23.72,16.22-39.24,38.17-39.24C232.37,85.35,246.88,101,246.88,123.15Zm-63.78,1.22c0,16,9.51,30.26,26.22,30.26s26.34-14.07,26.34-31c0-14.86-8.53-30.38-26.22-30.38S183.1,108,183.1,124.37Z" transform="translate(0.09 2.57)"/><path class="cls-8" d="M259.68,87.57A121.13,121.13,0,0,1,280.05,86c11.34,0,18.66,1.88,23.78,6.09a17.86,17.86,0,0,1,6.46,14.19c0,9.87-6.83,16.41-15.49,19.07v.33c6.34,2,10.12,7.32,12.08,15.08,2.68,10.42,4.63,17.62,6.34,20.51h-11c-1.34-2.11-3.17-8.54-5.49-17.85-2.44-10.31-6.83-14.19-16.46-14.52h-10v32.37H259.68Zm10.61,34h10.85c11.35,0,18.54-5.65,18.54-14.19,0-9.64-7.68-13.86-18.9-14a48.08,48.08,0,0,0-10.49.89Z" transform="translate(0.09 2.57)"/><path class="cls-8" d="M324.31,87.57A166.39,166.39,0,0,1,346.87,86c15.24,0,26.1,3.21,33.29,9.31s11.59,14.74,11.59,26.82-4.15,22.18-11.83,29S359.55,162,343.58,162a186.47,186.47,0,0,1-19.27-.89Zm10.61,66.07a74.1,74.1,0,0,0,10.73.55c22.68,0,35-11.53,35-31.7.12-17.63-10.85-28.83-33.29-28.83a66.42,66.42,0,0,0-12.44,1Z" transform="translate(0.09 2.57)"/><path class="cls-9" d="M48.72,82.6c1.93-.34,7.78-6.3,8.25-4.12,6.42,29.82,17.53,58,27.27,86.35,1.72,1.44,12.16,3.47,20.45,4.3-10.2,1.2-26.25,1.43-30.21,0C64.26,141,55,115,48.72,82.6Z" transform="translate(0.09 2.57)"/><path class="cls-9" d="M195.37,79.51c-58.16,14.62-27,95.82,4.12,89.65C172.09,167.57,156.1,91.59,195.37,79.51Z" transform="translate(0.09 2.57)"/><path class="cls-9" d="M246.75,85.18c-3.81,31.35-3.37,55.12,1.08,82.87.87,1.74,7.56,2.2,7.45,1.27-.87-7.48-5.43-60.41-2.39-88.73C250.65,80.26,248.68,84.34,246.75,85.18Z" transform="translate(0.09 2.57)"/><path class="cls-9" d="M309.18,83A479.62,479.62,0,0,0,311.33,167c2.77.56,6.21,2.64,9.57,2.18-5.12-25.06-4.12-55.89,0-89.65C317.27,79.17,311.62,81.87,309.18,83Z" transform="translate(0.09 2.57)"/><path class="cls-9" d="M151.06,78.48l-5.15,3.09a118.71,118.71,0,0,0-8.37,29.3l1,5.15,2.18.59A306.07,306.07,0,0,1,151.06,78.48Z" transform="translate(0.09 2.57)"/><path class="cls-9" d="M107.78,78.48c-2.91-.34-6.33,3.45-8.24,4.12-3.68,10.17-5.7,16.55-7.55,27l1.36,7L95,118.55l1.44-1.94C99.41,102.67,101.88,89.29,107.78,78.48Z" transform="translate(0.09 2.57)"/><path class="cls-9" d="M210.16,101.33c5.81-.43,9.71,1.8,11.84,4.3,19.55,23-.63,36.5-2.15,37.67-2.57,2-1.36,2.11-9.69,3.23C226.43,132.37,230.85,117.55,210.16,101.33Z" transform="translate(0.09 2.57)"/><path class="cls-9" d="M279,136.84a12.74,12.74,0,0,1,7.54,1.08c2.15,2.21,4.91,16,8.61,25.83.81,2.95,6.36,5.07,7.53,6.46-4,.32-7.84.34-10.76-1.08C288.21,156.23,284.32,143.9,279,136.84Z" transform="translate(0.09 2.57)"/><path class="cls-9" d="M342.54,101.33l1.08,1.07c29.67,2.43,27.48,39.95-1.08,43-1.27.14,1.39,1.09,0,1.08,5.47.35,11.7.19,16.14-1.08,4.52-2.15,8.43-4.77,10.77-8.61,2.55-4,3.18-9.32,3.23-15.07-.27-4.09-.91-8.11-3.23-11.83a30.1,30.1,0,0,0-7.54-6.46C354.84,101.9,348.21,100.94,342.54,101.33Z" transform="translate(0.09 2.57)"/><path class="cls-9" d="M278,101.33c0-.25,3.2-1,4.3-1.08a35.52,35.52,0,0,1,7.53,1.08c5.4,1.23,2.81,11.54-1.61,11.3s-10.24-.14-10.22-.54,5.72.81,10.22-1.62a2.46,2.46,0,0,0,1.61-2.69c0-1.5-.43-3.13-1.61-3.76C283.9,101.72,278,101.73,278,101.33Z" transform="translate(0.09 2.57)"/></svg>